<svg width="273" height="76" viewBox="0 0 273 76" fill="none" xmlns="http://www.w3.org/2000/svg">
<path d="M45.0798 3.512V4.232C44.5998 4.4 44.0718 4.772 43.4958 5.348C42.9198 5.924 42.4398 6.848 42.0558 8.12L35.5398 29.108C35.3958 29.108 35.2398 29.096 35.0718 29.072C34.9278 29.072 34.7718 29.072 34.6038 29.072C34.4598 29.072 34.3038 29.072 34.1358 29.072C33.9918 29.096 33.8478 29.108 33.7038 29.108L26.0718 6.284C25.8078 5.468 25.4958 4.928 25.1358 4.664C24.7998 4.4 24.4518 4.256 24.0918 4.232V3.512C24.6678 3.536 25.3638 3.56 26.1798 3.584C27.0198 3.608 27.8478 3.62 28.6638 3.62C29.6718 3.62 30.6198 3.608 31.5078 3.584C32.3958 3.56 33.1158 3.536 33.6678 3.512V4.232C32.9238 4.256 32.3478 4.34 31.9398 4.484C31.5318 4.604 31.2918 4.88 31.2198 5.312C31.1718 5.72 31.2918 6.368 31.5798 7.256L36.7638 23.204L36.0438 24.356L40.3638 10.712C40.8918 9.08 41.1318 7.796 41.0838 6.86C41.0598 5.924 40.7838 5.264 40.2558 4.88C39.7278 4.472 38.9718 4.256 37.9878 4.232V3.512C38.7798 3.536 39.5238 3.56 40.2198 3.584C40.9398 3.608 41.6598 3.62 42.3798 3.62C42.9318 3.62 43.4238 3.608 43.8558 3.584C44.3118 3.56 44.7198 3.536 45.0798 3.512ZM19.5918 3.512V4.232C19.0398 4.28 18.6558 4.436 18.4398 4.7C18.2238 4.964 18.1278 5.312 18.1518 5.744C18.1998 6.152 18.3198 6.656 18.5118 7.256L24.0198 23.6L23.0838 24.752L27.8358 10.424L28.3758 11.36L22.5798 29.108C22.4358 29.108 22.2798 29.096 22.1118 29.072C21.9678 29.072 21.8118 29.072 21.6438 29.072C21.4998 29.072 21.3438 29.072 21.1758 29.072C21.0318 29.096 20.8878 29.108 20.7438 29.108L12.8238 6.536C12.5118 5.648 12.1278 5.048 11.6718 4.736C11.2398 4.424 10.8438 4.256 10.4837 4.232V3.512C11.1078 3.536 11.8638 3.56 12.7518 3.584C13.6398 3.608 14.5038 3.62 15.3438 3.62C16.2318 3.62 17.0478 3.608 17.7918 3.584C18.5358 3.56 19.1358 3.536 19.5918 3.512ZM52.4572 9.884C54.5692 9.884 56.2252 10.52 57.4252 11.792C58.6252 13.064 59.2252 15.092 59.2252 17.876H47.0932L47.0572 17.192H55.0492C55.0972 16.016 55.0252 14.936 54.8332 13.952C54.6412 12.944 54.3292 12.14 53.8972 11.54C53.4892 10.94 52.9492 10.64 52.2772 10.64C51.3652 10.64 50.5732 11.18 49.9012 12.26C49.2292 13.316 48.8092 15.056 48.6412 17.48L48.7852 17.696C48.7372 18.008 48.7012 18.344 48.6772 18.704C48.6772 19.064 48.6772 19.424 48.6772 19.784C48.6772 21.44 48.9172 22.808 49.3972 23.888C49.8772 24.968 50.5012 25.76 51.2692 26.264C52.0372 26.768 52.8292 27.02 53.6452 27.02C54.4852 27.02 55.3372 26.816 56.2012 26.408C57.0892 25.976 57.8692 25.136 58.5412 23.888L59.2252 24.176C58.9612 25.016 58.5172 25.856 57.8932 26.696C57.2932 27.512 56.5132 28.184 55.5532 28.712C54.5932 29.24 53.4652 29.504 52.1692 29.504C50.5372 29.504 49.0972 29.144 47.8492 28.424C46.6012 27.704 45.6292 26.636 44.9332 25.22C44.2372 23.78 43.8892 22.028 43.8892 19.964C43.8892 17.78 44.2492 15.944 44.9692 14.456C45.7132 12.968 46.7332 11.84 48.0292 11.072C49.3252 10.28 50.8012 9.884 52.4572 9.884ZM68.329 0.811998V25.652C68.329 26.66 68.509 27.344 68.869 27.704C69.253 28.064 69.889 28.244 70.777 28.244V29C70.345 28.976 69.685 28.952 68.797 28.928C67.933 28.88 67.045 28.856 66.133 28.856C65.245 28.856 64.333 28.88 63.397 28.928C62.485 28.952 61.801 28.976 61.345 29V28.244C62.233 28.244 62.857 28.064 63.217 27.704C63.601 27.344 63.793 26.66 63.793 25.652V5.132C63.793 4.052 63.625 3.26 63.289 2.756C62.953 2.228 62.305 1.964 61.345 1.964V1.208C62.113 1.28 62.857 1.316 63.577 1.316C64.489 1.316 65.341 1.28 66.133 1.208C66.925 1.112 67.657 0.979999 68.329 0.811998ZM81.3239 9.884C82.2119 9.884 83.0279 9.992 83.7719 10.208C84.5399 10.4 85.1999 10.676 85.7519 11.036C86.3279 11.396 86.7839 11.852 87.1199 12.404C87.4559 12.932 87.6239 13.52 87.6239 14.168C87.6239 14.96 87.3839 15.596 86.9039 16.076C86.4239 16.556 85.8239 16.796 85.1039 16.796C84.3599 16.796 83.7479 16.58 83.2679 16.148C82.8119 15.716 82.5839 15.14 82.5839 14.42C82.5839 13.724 82.7879 13.148 83.1959 12.692C83.6039 12.236 84.0959 11.936 84.6719 11.792C84.4559 11.48 84.1199 11.228 83.6639 11.036C83.2079 10.82 82.7039 10.712 82.1519 10.712C81.4319 10.712 80.7839 10.904 80.2079 11.288C79.6319 11.648 79.1279 12.2 78.6959 12.944C78.2879 13.664 77.9639 14.564 77.7239 15.644C77.5079 16.7 77.3999 17.924 77.3999 19.316C77.3999 21.26 77.6279 22.796 78.0839 23.924C78.5639 25.052 79.1759 25.856 79.9199 26.336C80.6639 26.792 81.4559 27.02 82.2959 27.02C83.0399 27.02 83.8679 26.804 84.7799 26.372C85.6919 25.94 86.4839 25.088 87.1559 23.816L87.8399 24.068C87.5759 24.908 87.1439 25.748 86.5439 26.588C85.9679 27.428 85.2119 28.124 84.2759 28.676C83.3399 29.228 82.1999 29.504 80.8559 29.504C79.3199 29.504 77.9279 29.156 76.6799 28.46C75.4319 27.74 74.4359 26.66 73.6919 25.22C72.9719 23.78 72.6119 21.992 72.6119 19.856C72.6119 17.744 72.9839 15.956 73.7279 14.492C74.4719 13.004 75.5039 11.864 76.8239 11.072C78.1679 10.28 79.6679 9.884 81.3239 9.884ZM99.0058 9.884C100.662 9.884 102.126 10.22 103.398 10.892C104.694 11.54 105.714 12.584 106.458 14.024C107.226 15.464 107.61 17.36 107.61 19.712C107.61 22.064 107.226 23.96 106.458 25.4C105.714 26.84 104.694 27.884 103.398 28.532C102.126 29.18 100.662 29.504 99.0058 29.504C97.3498 29.504 95.8738 29.18 94.5778 28.532C93.2818 27.884 92.2618 26.84 91.5178 25.4C90.7738 23.96 90.4018 22.064 90.4018 19.712C90.4018 17.36 90.7738 15.464 91.5178 14.024C92.2618 12.584 93.2818 11.54 94.5778 10.892C95.8738 10.22 97.3498 9.884 99.0058 9.884ZM99.0058 10.604C97.8778 10.604 96.9538 11.324 96.2338 12.764C95.5378 14.18 95.1898 16.496 95.1898 19.712C95.1898 22.928 95.5378 25.244 96.2338 26.66C96.9538 28.076 97.8778 28.784 99.0058 28.784C100.11 28.784 101.022 28.076 101.742 26.66C102.462 25.244 102.822 22.928 102.822 19.712C102.822 16.496 102.462 14.18 101.742 12.764C101.022 11.324 100.11 10.604 99.0058 10.604ZM122.643 9.884C123.579 9.884 124.359 10.016 124.983 10.28C125.631 10.544 126.135 10.88 126.495 11.288C126.927 11.744 127.227 12.356 127.395 13.124C127.563 13.868 127.647 14.816 127.647 15.968V25.652C127.647 26.66 127.815 27.344 128.151 27.704C128.511 28.064 129.111 28.244 129.951 28.244V29C129.519 28.976 128.871 28.952 128.007 28.928C127.143 28.88 126.303 28.856 125.487 28.856C124.623 28.856 123.783 28.88 122.967 28.928C122.175 28.952 121.575 28.976 121.167 29V28.244C121.863 28.244 122.355 28.064 122.643 27.704C122.955 27.344 123.111 26.66 123.111 25.652V14.744C123.111 14.096 123.063 13.52 122.967 13.016C122.871 12.488 122.667 12.08 122.355 11.792C122.043 11.48 121.563 11.324 120.915 11.324C120.171 11.324 119.499 11.54 118.899 11.972C118.299 12.404 117.819 13.004 117.459 13.772C117.123 14.516 116.955 15.356 116.955 16.292V25.652C116.955 26.66 117.099 27.344 117.387 27.704C117.675 28.064 118.179 28.244 118.899 28.244V29C118.491 28.976 117.891 28.952 117.099 28.928C116.331 28.88 115.539 28.856 114.723 28.856C113.835 28.856 112.935 28.88 112.023 28.928C111.111 28.952 110.427 28.976 109.971 29V28.244C110.859 28.244 111.483 28.064 111.843 27.704C112.227 27.344 112.419 26.66 112.419 25.652V14.312C112.419 13.232 112.239 12.44 111.879 11.936C111.543 11.408 110.907 11.144 109.971 11.144V10.388C110.739 10.46 111.483 10.496 112.203 10.496C113.091 10.496 113.931 10.46 114.723 10.388C115.539 10.292 116.283 10.16 116.955 9.992V13.592C117.555 12.272 118.359 11.324 119.367 10.748C120.375 10.172 121.467 9.884 122.643 9.884ZM133.479 9.884C134.415 9.884 135.195 10.016 135.819 10.28C136.467 10.544 136.971 10.88 137.331 11.288C137.763 11.744 138.063 12.356 138.231 13.124C138.399 13.868 138.483 14.816 138.483 15.968V25.652C138.483 26.66 138.663 27.344 139.023 27.704C139.407 28.064 140.043 28.244 140.931 28.244V29C140.499 28.976 139.827 28.952 138.915 28.928C138.027 28.88 137.163 28.856 136.323 28.856C135.459 28.856 134.619 28.88 133.803 28.928C133.011 28.952 132.411 28.976 132.003 29V28.244C132.699 28.244 133.191 28.064 133.479 27.704C133.791 27.344 133.947 26.66 133.947 25.652V14.744C133.947 14.096 133.887 13.52 133.767 13.016C133.671 12.488 133.455 12.08 133.119 11.792C132.783 11.48 132.279 11.324 131.607 11.324C130.503 11.324 129.567 11.816 128.799 12.8C128.031 13.784 127.635 14.972 127.611 16.364L127.431 13.772C128.079 12.284 128.943 11.264 130.023 10.712C131.103 10.16 132.255 9.884 133.479 9.884ZM151.422 9.884C153.534 9.884 155.19 10.52 156.39 11.792C157.59 13.064 158.19 15.092 158.19 17.876H146.058L146.022 17.192H154.014C154.062 16.016 153.99 14.936 153.798 13.952C153.606 12.944 153.294 12.14 152.862 11.54C152.454 10.94 151.914 10.64 151.242 10.64C150.33 10.64 149.538 11.18 148.866 12.26C148.194 13.316 147.774 15.056 147.606 17.48L147.75 17.696C147.702 18.008 147.666 18.344 147.642 18.704C147.642 19.064 147.642 19.424 147.642 19.784C147.642 21.44 147.882 22.808 148.362 23.888C148.842 24.968 149.466 25.76 150.234 26.264C151.002 26.768 151.794 27.02 152.61 27.02C153.45 27.02 154.302 26.816 155.166 26.408C156.054 25.976 156.834 25.136 157.506 23.888L158.19 24.176C157.926 25.016 157.482 25.856 156.858 26.696C156.258 27.512 155.478 28.184 154.518 28.712C153.558 29.24 152.43 29.504 151.134 29.504C149.502 29.504 148.062 29.144 146.814 28.424C145.566 27.704 144.594 26.636 143.898 25.22C143.202 23.78 142.854 22.028 142.854 19.964C142.854 17.78 143.214 15.944 143.934 14.456C144.678 12.968 145.698 11.84 146.994 11.072C148.29 10.28 149.766 9.884 151.422 9.884ZM175.521 4.484V10.424H180.129V11.144H175.521V25.472C175.521 26.336 175.677 26.948 175.989 27.308C176.301 27.668 176.745 27.848 177.321 27.848C177.873 27.848 178.377 27.644 178.833 27.236C179.289 26.804 179.697 26.096 180.057 25.112L180.705 25.4C180.345 26.576 179.781 27.56 179.013 28.352C178.269 29.12 177.213 29.504 175.845 29.504C175.029 29.504 174.333 29.396 173.757 29.18C173.205 28.988 172.725 28.7 172.317 28.316C171.789 27.764 171.429 27.104 171.237 26.336C171.069 25.568 170.985 24.548 170.985 23.276V11.144H167.817V10.424H170.985V5.42C171.849 5.396 172.653 5.312 173.397 5.168C174.141 5.024 174.849 4.796 175.521 4.484ZM190.447 9.884C192.103 9.884 193.567 10.22 194.839 10.892C196.135 11.54 197.155 12.584 197.899 14.024C198.667 15.464 199.051 17.36 199.051 19.712C199.051 22.064 198.667 23.96 197.899 25.4C197.155 26.84 196.135 27.884 194.839 28.532C193.567 29.18 192.103 29.504 190.447 29.504C188.791 29.504 187.315 29.18 186.019 28.532C184.723 27.884 183.703 26.84 182.959 25.4C182.215 23.96 181.843 22.064 181.843 19.712C181.843 17.36 182.215 15.464 182.959 14.024C183.703 12.584 184.723 11.54 186.019 10.892C187.315 10.22 188.791 9.884 190.447 9.884ZM190.447 10.604C189.319 10.604 188.395 11.324 187.675 12.764C186.979 14.18 186.631 16.496 186.631 19.712C186.631 22.928 186.979 25.244 187.675 26.66C188.395 28.076 189.319 28.784 190.447 28.784C191.551 28.784 192.463 28.076 193.183 26.66C193.903 25.244 194.263 22.928 194.263 19.712C194.263 16.496 193.903 14.18 193.183 12.764C192.463 11.324 191.551 10.604 190.447 10.604ZM216.408 4.484V10.424H221.016V11.144H216.408V25.472C216.408 26.336 216.564 26.948 216.876 27.308C217.188 27.668 217.632 27.848 218.208 27.848C218.76 27.848 219.264 27.644 219.72 27.236C220.176 26.804 220.584 26.096 220.944 25.112L221.592 25.4C221.232 26.576 220.668 27.56 219.9 28.352C219.156 29.12 218.1 29.504 216.732 29.504C215.916 29.504 215.22 29.396 214.644 29.18C214.092 28.988 213.612 28.7 213.204 28.316C212.676 27.764 212.316 27.104 212.124 26.336C211.956 25.568 211.872 24.548 211.872 23.276V11.144H208.704V10.424H211.872V5.42C212.736 5.396 213.54 5.312 214.284 5.168C215.028 5.024 215.736 4.796 216.408 4.484ZM228.992 0.811998V13.556C229.592 12.212 230.42 11.264 231.476 10.712C232.556 10.16 233.72 9.884 234.968 9.884C235.952 9.884 236.756 10.016 237.38 10.28C238.004 10.544 238.508 10.88 238.892 11.288C239.3 11.744 239.588 12.332 239.756 13.052C239.948 13.772 240.044 14.744 240.044 15.968V25.652C240.044 26.66 240.224 27.344 240.584 27.704C240.968 28.064 241.604 28.244 242.492 28.244V29C242.06 28.976 241.4 28.952 240.512 28.928C239.624 28.88 238.748 28.856 237.884 28.856C237.02 28.856 236.168 28.88 235.328 28.928C234.488 28.952 233.852 28.976 233.42 29V28.244C234.188 28.244 234.728 28.064 235.04 27.704C235.352 27.344 235.508 26.66 235.508 25.652V14.744C235.508 14.096 235.448 13.52 235.328 13.016C235.208 12.488 234.968 12.08 234.608 11.792C234.272 11.48 233.756 11.324 233.06 11.324C231.908 11.324 230.936 11.792 230.144 12.728C229.376 13.64 228.992 14.828 228.992 16.292V25.652C228.992 26.66 229.148 27.344 229.46 27.704C229.796 28.064 230.336 28.244 231.08 28.244V29C230.672 28.976 230.06 28.952 229.244 28.928C228.452 28.88 227.624 28.856 226.76 28.856C225.896 28.856 224.996 28.88 224.06 28.928C223.148 28.952 222.464 28.976 222.008 29V28.244C222.896 28.244 223.52 28.064 223.88 27.704C224.264 27.344 224.456 26.66 224.456 25.652V5.132C224.456 4.052 224.276 3.26 223.916 2.756C223.58 2.228 222.944 1.964 222.008 1.964V1.208C222.776 1.28 223.52 1.316 224.24 1.316C225.152 1.316 226.004 1.28 226.796 1.208C227.588 1.112 228.32 0.979999 228.992 0.811998ZM252.988 9.884C255.1 9.884 256.756 10.52 257.956 11.792C259.156 13.064 259.756 15.092 259.756 17.876H247.624L247.588 17.192H255.58C255.628 16.016 255.556 14.936 255.364 13.952C255.172 12.944 254.86 12.14 254.428 11.54C254.02 10.94 253.48 10.64 252.808 10.64C251.896 10.64 251.104 11.18 250.432 12.26C249.76 13.316 249.34 15.056 249.172 17.48L249.316 17.696C249.268 18.008 249.232 18.344 249.208 18.704C249.208 19.064 249.208 19.424 249.208 19.784C249.208 21.44 249.448 22.808 249.928 23.888C250.408 24.968 251.032 25.76 251.8 26.264C252.568 26.768 253.36 27.02 254.176 27.02C255.016 27.02 255.868 26.816 256.732 26.408C257.62 25.976 258.4 25.136 259.072 23.888L259.756 24.176C259.492 25.016 259.048 25.856 258.424 26.696C257.824 27.512 257.044 28.184 256.084 28.712C255.124 29.24 253.996 29.504 252.7 29.504C251.068 29.504 249.628 29.144 248.38 28.424C247.132 27.704 246.16 26.636 245.464 25.22C244.768 23.78 244.42 22.028 244.42 19.964C244.42 17.78 244.78 15.944 245.5 14.456C246.244 12.968 247.264 11.84 248.56 11.072C249.856 10.28 251.332 9.884 252.988 9.884ZM9.88806 40.848C10.6801 40.848 11.3641 40.956 11.9401 41.172C12.5401 41.364 13.0561 41.628 13.4881 41.964C13.8481 42.252 14.1361 42.612 14.3521 43.044C14.5921 43.476 14.7121 43.956 14.7121 44.484C14.7121 45.132 14.4841 45.684 14.0281 46.14C13.5961 46.596 13.0441 46.824 12.3721 46.824C11.6521 46.824 11.0521 46.62 10.5721 46.212C10.1161 45.78 9.88806 45.192 9.88806 44.448C9.88806 43.872 10.0441 43.38 10.3561 42.972C10.6921 42.54 11.1601 42.24 11.7601 42.072C11.6881 41.904 11.5321 41.76 11.2921 41.64C11.0521 41.52 10.7281 41.46 10.3201 41.46C9.84006 41.46 9.42006 41.556 9.06006 41.748C8.72406 41.94 8.44806 42.204 8.23206 42.54C7.99206 42.948 7.82406 43.548 7.72806 44.34C7.63206 45.132 7.58406 46.332 7.58406 47.94V50.424H11.4361V51.144H7.58406V65.292C7.58406 66.468 7.89606 67.26 8.52006 67.668C9.16806 68.052 10.0321 68.244 11.1121 68.244V69C10.5121 68.976 9.67206 68.952 8.59206 68.928C7.51206 68.88 6.36006 68.856 5.13606 68.856C4.27206 68.856 3.40806 68.88 2.54406 68.928C1.68006 68.952 1.03206 68.976 0.600063 69V68.244C1.48806 68.244 2.11206 68.064 2.47206 67.704C2.85606 67.344 3.04806 66.66 3.04806 65.652V51.144H0.456063V50.424H3.04806C3.04806 48.288 3.20406 46.668 3.51606 45.564C3.85206 44.436 4.40406 43.464 5.17206 42.648C5.67606 42.12 6.33606 41.688 7.15206 41.352C7.99206 41.016 8.90406 40.848 9.88806 40.848ZM30.3982 49.992V65.112C30.3982 66.192 30.5782 66.996 30.9382 67.524C31.2982 68.028 31.9342 68.28 32.8462 68.28V69.036C32.1022 68.964 31.3582 68.928 30.6142 68.928C29.7262 68.928 28.8742 68.964 28.0582 69.036C27.2662 69.108 26.5342 69.24 25.8622 69.432V65.832C25.2622 67.152 24.4342 68.1 23.3782 68.676C22.3462 69.228 21.2302 69.504 20.0302 69.504C19.0942 69.504 18.3022 69.372 17.6542 69.108C17.0302 68.868 16.5262 68.532 16.1422 68.1C15.7342 67.644 15.4462 67.044 15.2782 66.3C15.1102 65.556 15.0262 64.596 15.0262 63.42V54.312C15.0262 53.232 14.8462 52.44 14.4862 51.936C14.1502 51.408 13.5142 51.144 12.5782 51.144V50.388C13.3462 50.46 14.0902 50.496 14.8102 50.496C15.6982 50.496 16.5382 50.46 17.3302 50.388C18.1462 50.292 18.8902 50.16 19.5622 49.992V64.68C19.5622 65.328 19.6102 65.904 19.7062 66.408C19.8262 66.912 20.0542 67.32 20.3902 67.632C20.7262 67.92 21.2302 68.064 21.9022 68.064C23.0302 68.064 23.9662 67.596 24.7102 66.66C25.4782 65.7 25.8622 64.524 25.8622 63.132V54.312C25.8622 53.232 25.6822 52.44 25.3222 51.936C24.9862 51.408 24.3502 51.144 23.4142 51.144V50.388C24.1822 50.46 24.9262 50.496 25.6462 50.496C26.5342 50.496 27.3742 50.46 28.1662 50.388C28.9822 50.292 29.7262 50.16 30.3982 49.992ZM41.2947 44.484V50.424H45.9027V51.144H41.2947V65.472C41.2947 66.336 41.4507 66.948 41.7627 67.308C42.0747 67.668 42.5187 67.848 43.0947 67.848C43.6467 67.848 44.1507 67.644 44.6067 67.236C45.0627 66.804 45.4707 66.096 45.8307 65.112L46.4787 65.4C46.1187 66.576 45.5547 67.56 44.7867 68.352C44.0427 69.12 42.9867 69.504 41.6187 69.504C40.8027 69.504 40.1067 69.396 39.5307 69.18C38.9787 68.988 38.4987 68.7 38.0907 68.316C37.5627 67.764 37.2027 67.104 37.0107 66.336C36.8427 65.568 36.7587 64.548 36.7587 63.276V51.144H33.5907V50.424H36.7587V45.42C37.6227 45.396 38.4267 45.312 39.1707 45.168C39.9147 45.024 40.6227 44.796 41.2947 44.484ZM64.5349 49.992V65.112C64.5349 66.192 64.7149 66.996 65.0749 67.524C65.4349 68.028 66.0709 68.28 66.9829 68.28V69.036C66.2389 68.964 65.4949 68.928 64.7509 68.928C63.8629 68.928 63.0109 68.964 62.1949 69.036C61.4029 69.108 60.6709 69.24 59.9989 69.432V65.832C59.3989 67.152 58.5709 68.1 57.5149 68.676C56.4829 69.228 55.3669 69.504 54.1669 69.504C53.2309 69.504 52.4389 69.372 51.7909 69.108C51.1669 68.868 50.6629 68.532 50.2789 68.1C49.8709 67.644 49.5829 67.044 49.4149 66.3C49.2469 65.556 49.1629 64.596 49.1629 63.42V54.312C49.1629 53.232 48.9829 52.44 48.6229 51.936C48.2869 51.408 47.6509 51.144 46.7149 51.144V50.388C47.4829 50.46 48.2269 50.496 48.9469 50.496C49.8349 50.496 50.6749 50.46 51.4669 50.388C52.2829 50.292 53.0269 50.16 53.6989 49.992V64.68C53.6989 65.328 53.7469 65.904 53.8429 66.408C53.9629 66.912 54.1909 67.32 54.5269 67.632C54.8629 67.92 55.3669 68.064 56.0389 68.064C57.1669 68.064 58.1029 67.596 58.8469 66.66C59.6149 65.7 59.9989 64.524 59.9989 63.132V54.312C59.9989 53.232 59.8189 52.44 59.4589 51.936C59.1229 51.408 58.4869 51.144 57.5509 51.144V50.388C58.3189 50.46 59.0629 50.496 59.7829 50.496C60.6709 50.496 61.5109 50.46 62.3029 50.388C63.1189 50.292 63.8629 50.16 64.5349 49.992ZM80.5794 49.884C81.3234 49.884 81.9354 50.04 82.4154 50.352C82.9194 50.664 83.2914 51.06 83.5314 51.54C83.7714 52.02 83.8914 52.524 83.8914 53.052C83.8914 53.844 83.6514 54.504 83.1714 55.032C82.7154 55.56 82.1034 55.824 81.3354 55.824C80.6154 55.824 80.0274 55.632 79.5714 55.248C79.1154 54.864 78.8874 54.336 78.8874 53.664C78.8874 53.064 79.0314 52.56 79.3194 52.152C79.6314 51.744 79.9794 51.42 80.3634 51.18C80.0994 51.036 79.7994 50.988 79.4634 51.036C78.6954 51.108 78.0234 51.444 77.4474 52.044C76.8714 52.62 76.4154 53.316 76.0794 54.132C75.7674 54.924 75.6114 55.68 75.6114 56.4V65.292C75.6114 66.468 75.9114 67.26 76.5114 67.668C77.1114 68.052 77.9874 68.244 79.1394 68.244V69C78.5874 68.976 77.7834 68.952 76.7274 68.928C75.6954 68.88 74.6154 68.856 73.4874 68.856C72.5514 68.856 71.6154 68.88 70.6794 68.928C69.7674 68.952 69.0834 68.976 68.6274 69V68.244C69.5154 68.244 70.1394 68.064 70.4994 67.704C70.8834 67.344 71.0754 66.66 71.0754 65.652V54.312C71.0754 53.232 70.8954 52.44 70.5354 51.936C70.1994 51.408 69.5634 51.144 68.6274 51.144V50.388C69.3954 50.46 70.1394 50.496 70.8594 50.496C71.7474 50.496 72.5874 50.46 73.3794 50.388C74.1954 50.292 74.9394 50.16 75.6114 49.992V53.736C75.8994 53.064 76.2714 52.44 76.7274 51.864C77.2074 51.288 77.7714 50.82 78.4194 50.46C79.0914 50.076 79.8114 49.884 80.5794 49.884ZM93.6603 49.884C95.7723 49.884 97.4283 50.52 98.6283 51.792C99.8283 53.064 100.428 55.092 100.428 57.876H88.2963L88.2603 57.192H96.2523C96.3003 56.016 96.2283 54.936 96.0363 53.952C95.8443 52.944 95.5323 52.14 95.1003 51.54C94.6923 50.94 94.1523 50.64 93.4803 50.64C92.5683 50.64 91.7763 51.18 91.1043 52.26C90.4323 53.316 90.0123 55.056 89.8443 57.48L89.9883 57.696C89.9403 58.008 89.9043 58.344 89.8803 58.704C89.8803 59.064 89.8803 59.424 89.8803 59.784C89.8803 61.44 90.1203 62.808 90.6003 63.888C91.0803 64.968 91.7043 65.76 92.4723 66.264C93.2403 66.768 94.0323 67.02 94.8483 67.02C95.6883 67.02 96.5403 66.816 97.4043 66.408C98.2923 65.976 99.0723 65.136 99.7443 63.888L100.428 64.176C100.164 65.016 99.7203 65.856 99.0963 66.696C98.4963 67.512 97.7163 68.184 96.7563 68.712C95.7963 69.24 94.6683 69.504 93.3723 69.504C91.7403 69.504 90.3003 69.144 89.0523 68.424C87.8043 67.704 86.8323 66.636 86.1363 65.22C85.4403 63.78 85.0923 62.028 85.0923 59.964C85.0923 57.78 85.4523 55.944 86.1723 54.456C86.9163 52.968 87.9363 51.84 89.2323 51.072C90.5283 50.28 92.0043 49.884 93.6603 49.884ZM120.521 49.884C122.177 49.884 123.641 50.22 124.913 50.892C126.209 51.54 127.229 52.584 127.973 54.024C128.741 55.464 129.125 57.36 129.125 59.712C129.125 62.064 128.741 63.96 127.973 65.4C127.229 66.84 126.209 67.884 124.913 68.532C123.641 69.18 122.177 69.504 120.521 69.504C118.865 69.504 117.389 69.18 116.093 68.532C114.797 67.884 113.777 66.84 113.033 65.4C112.289 63.96 111.917 62.064 111.917 59.712C111.917 57.36 112.289 55.464 113.033 54.024C113.777 52.584 114.797 51.54 116.093 50.892C117.389 50.22 118.865 49.884 120.521 49.884ZM120.521 50.604C119.393 50.604 118.469 51.324 117.749 52.764C117.053 54.18 116.705 56.496 116.705 59.712C116.705 62.928 117.053 65.244 117.749 66.66C118.469 68.076 119.393 68.784 120.521 68.784C121.625 68.784 122.537 68.076 123.257 66.66C123.977 65.244 124.337 62.928 124.337 59.712C124.337 56.496 123.977 54.18 123.257 52.764C122.537 51.324 121.625 50.604 120.521 50.604ZM140.775 40.848C141.567 40.848 142.251 40.956 142.827 41.172C143.427 41.364 143.943 41.628 144.375 41.964C144.735 42.252 145.023 42.612 145.239 43.044C145.479 43.476 145.599 43.956 145.599 44.484C145.599 45.132 145.371 45.684 144.915 46.14C144.483 46.596 143.931 46.824 143.259 46.824C142.539 46.824 141.939 46.62 141.459 46.212C141.003 45.78 140.775 45.192 140.775 44.448C140.775 43.872 140.931 43.38 141.243 42.972C141.579 42.54 142.047 42.24 142.647 42.072C142.575 41.904 142.419 41.76 142.179 41.64C141.939 41.52 141.615 41.46 141.207 41.46C140.727 41.46 140.307 41.556 139.947 41.748C139.611 41.94 139.335 42.204 139.119 42.54C138.879 42.948 138.711 43.548 138.615 44.34C138.519 45.132 138.471 46.332 138.471 47.94V50.424H142.323V51.144H138.471V65.292C138.471 66.468 138.783 67.26 139.407 67.668C140.055 68.052 140.919 68.244 141.999 68.244V69C141.399 68.976 140.559 68.952 139.479 68.928C138.399 68.88 137.247 68.856 136.023 68.856C135.159 68.856 134.295 68.88 133.431 68.928C132.567 68.952 131.919 68.976 131.487 69V68.244C132.375 68.244 132.999 68.064 133.359 67.704C133.743 67.344 133.935 66.66 133.935 65.652V51.144H131.343V50.424H133.935C133.935 48.288 134.091 46.668 134.403 45.564C134.739 44.436 135.291 43.464 136.059 42.648C136.563 42.12 137.223 41.688 138.039 41.352C138.879 41.016 139.791 40.848 140.775 40.848ZM158.892 44.484V50.424H163.5V51.144H158.892V65.472C158.892 66.336 159.048 66.948 159.36 67.308C159.672 67.668 160.116 67.848 160.692 67.848C161.244 67.848 161.748 67.644 162.204 67.236C162.66 66.804 163.068 66.096 163.428 65.112L164.076 65.4C163.716 66.576 163.152 67.56 162.384 68.352C161.64 69.12 160.584 69.504 159.216 69.504C158.4 69.504 157.704 69.396 157.128 69.18C156.576 68.988 156.096 68.7 155.688 68.316C155.16 67.764 154.8 67.104 154.608 66.336C154.44 65.568 154.356 64.548 154.356 63.276V51.144H151.188V50.424H154.356V45.42C155.22 45.396 156.024 45.312 156.768 45.168C157.512 45.024 158.22 44.796 158.892 44.484ZM176.697 49.884C177.441 49.884 178.053 50.04 178.533 50.352C179.037 50.664 179.409 51.06 179.649 51.54C179.889 52.02 180.009 52.524 180.009 53.052C180.009 53.844 179.769 54.504 179.289 55.032C178.833 55.56 178.221 55.824 177.453 55.824C176.733 55.824 176.145 55.632 175.689 55.248C175.233 54.864 175.005 54.336 175.005 53.664C175.005 53.064 175.149 52.56 175.437 52.152C175.749 51.744 176.097 51.42 176.481 51.18C176.217 51.036 175.917 50.988 175.581 51.036C174.813 51.108 174.141 51.444 173.565 52.044C172.989 52.62 172.533 53.316 172.197 54.132C171.885 54.924 171.729 55.68 171.729 56.4V65.292C171.729 66.468 172.029 67.26 172.629 67.668C173.229 68.052 174.105 68.244 175.257 68.244V69C174.705 68.976 173.901 68.952 172.845 68.928C171.813 68.88 170.733 68.856 169.605 68.856C168.669 68.856 167.733 68.88 166.797 68.928C165.885 68.952 165.201 68.976 164.745 69V68.244C165.633 68.244 166.257 68.064 166.617 67.704C167.001 67.344 167.193 66.66 167.193 65.652V54.312C167.193 53.232 167.013 52.44 166.653 51.936C166.317 51.408 165.681 51.144 164.745 51.144V50.388C165.513 50.46 166.257 50.496 166.977 50.496C167.865 50.496 168.705 50.46 169.497 50.388C170.313 50.292 171.057 50.16 171.729 49.992V53.736C172.017 53.064 172.389 52.44 172.845 51.864C173.325 51.288 173.889 50.82 174.537 50.46C175.209 50.076 175.929 49.884 176.697 49.884ZM186.02 69.252C184.436 69.252 183.284 68.844 182.564 68.028C181.844 67.212 181.484 66.18 181.484 64.932C181.484 63.924 181.724 63.096 182.204 62.448C182.684 61.776 183.296 61.236 184.04 60.828C184.808 60.42 185.612 60.072 186.452 59.784C187.292 59.472 188.084 59.184 188.828 58.92C189.572 58.632 190.184 58.32 190.664 57.984C191.144 57.624 191.384 57.168 191.384 56.616V53.988C191.384 53.22 191.264 52.596 191.024 52.116C190.808 51.612 190.472 51.24 190.016 51C189.584 50.736 189.032 50.604 188.36 50.604C187.856 50.604 187.328 50.676 186.776 50.82C186.224 50.964 185.768 51.24 185.408 51.648C186.032 51.816 186.512 52.128 186.848 52.584C187.208 53.04 187.388 53.592 187.388 54.24C187.388 54.984 187.136 55.572 186.632 56.004C186.152 56.412 185.54 56.616 184.796 56.616C184.004 56.616 183.404 56.364 182.996 55.86C182.588 55.356 182.384 54.768 182.384 54.096C182.384 53.424 182.552 52.872 182.888 52.44C183.224 51.984 183.692 51.576 184.292 51.216C184.892 50.808 185.66 50.484 186.596 50.244C187.532 50.004 188.552 49.884 189.656 49.884C190.712 49.884 191.648 50.004 192.464 50.244C193.28 50.46 193.976 50.856 194.552 51.432C195.128 51.984 195.5 52.668 195.668 53.484C195.836 54.3 195.92 55.296 195.92 56.472V66.336C195.92 66.936 195.98 67.368 196.1 67.632C196.244 67.872 196.484 67.992 196.82 67.992C197.108 67.992 197.36 67.92 197.576 67.776C197.792 67.632 198.008 67.476 198.224 67.308L198.62 67.92C198.092 68.328 197.54 68.652 196.964 68.892C196.388 69.132 195.692 69.252 194.876 69.252C193.508 69.252 192.596 68.952 192.14 68.352C191.684 67.728 191.444 67.02 191.42 66.228C190.772 67.308 189.992 68.088 189.08 68.568C188.168 69.024 187.148 69.252 186.02 69.252ZM188.432 67.236C188.96 67.236 189.476 67.092 189.98 66.804C190.484 66.516 190.952 66.036 191.384 65.364V58.092C191.072 58.572 190.616 58.968 190.016 59.28C189.416 59.592 188.804 59.94 188.18 60.324C187.58 60.684 187.052 61.164 186.596 61.764C186.164 62.364 185.948 63.192 185.948 64.248C185.948 65.28 186.176 66.036 186.632 66.516C187.112 66.996 187.712 67.236 188.432 67.236ZM216.899 40.812V65.076C216.899 66.156 217.079 66.96 217.439 67.488C217.799 67.992 218.435 68.244 219.347 68.244V69C218.603 68.928 217.859 68.892 217.115 68.892C216.227 68.892 215.387 68.928 214.595 69C213.803 69.072 213.059 69.204 212.363 69.396V45.132C212.363 44.052 212.183 43.26 211.823 42.756C211.487 42.228 210.851 41.964 209.915 41.964V41.208C210.683 41.28 211.427 41.316 212.147 41.316C213.059 41.316 213.911 41.28 214.703 41.208C215.495 41.112 216.227 40.98 216.899 40.812ZM208.295 49.884C209.351 49.884 210.299 50.088 211.139 50.496C211.979 50.904 212.603 51.588 213.011 52.548L212.579 52.908C212.243 52.212 211.787 51.696 211.211 51.36C210.635 51.024 209.987 50.856 209.267 50.856C207.971 50.856 206.927 51.588 206.135 53.052C205.367 54.492 204.983 56.712 204.983 59.712C204.983 61.728 205.139 63.36 205.451 64.608C205.763 65.832 206.207 66.72 206.783 67.272C207.383 67.824 208.091 68.1 208.907 68.1C209.771 68.1 210.551 67.752 211.247 67.056C211.943 66.336 212.351 65.316 212.471 63.996L212.723 65.004C212.411 66.468 211.823 67.584 210.959 68.352C210.095 69.12 208.955 69.504 207.539 69.504C206.099 69.504 204.815 69.156 203.687 68.46C202.583 67.74 201.719 66.66 201.095 65.22C200.495 63.756 200.195 61.908 200.195 59.676C200.195 57.492 200.555 55.68 201.275 54.24C201.995 52.776 202.967 51.684 204.191 50.964C205.415 50.244 206.783 49.884 208.295 49.884ZM225.423 41.208C226.287 41.208 226.995 41.448 227.547 41.928C228.099 42.408 228.375 43.044 228.375 43.836C228.375 44.628 228.099 45.264 227.547 45.744C226.995 46.224 226.287 46.464 225.423 46.464C224.559 46.464 223.851 46.224 223.299 45.744C222.747 45.264 222.471 44.628 222.471 43.836C222.471 43.044 222.747 42.408 223.299 41.928C223.851 41.448 224.559 41.208 225.423 41.208ZM227.943 49.992V65.652C227.943 66.66 228.123 67.344 228.483 67.704C228.867 68.064 229.503 68.244 230.391 68.244V69C229.959 68.976 229.299 68.952 228.411 68.928C227.523 68.88 226.623 68.856 225.711 68.856C224.823 68.856 223.923 68.88 223.011 68.928C222.099 68.952 221.415 68.976 220.959 69V68.244C221.847 68.244 222.471 68.064 222.831 67.704C223.215 67.344 223.407 66.66 223.407 65.652V54.348C223.407 53.244 223.227 52.44 222.867 51.936C222.531 51.408 221.895 51.144 220.959 51.144V50.388C221.727 50.46 222.471 50.496 223.191 50.496C224.079 50.496 224.919 50.46 225.711 50.388C226.527 50.292 227.271 50.16 227.943 49.992ZM244.958 49.884C245.966 49.884 246.77 50.016 247.37 50.28C247.994 50.544 248.498 50.88 248.882 51.288C249.314 51.744 249.614 52.332 249.782 53.052C249.974 53.772 250.07 54.744 250.07 55.968V65.652C250.07 66.66 250.25 67.344 250.61 67.704C250.994 68.064 251.63 68.244 252.518 68.244V69C252.086 68.976 251.414 68.952 250.502 68.928C249.614 68.88 248.75 68.856 247.91 68.856C247.022 68.856 246.158 68.88 245.318 68.928C244.478 68.952 243.854 68.976 243.446 69V68.244C244.214 68.244 244.754 68.064 245.066 67.704C245.378 67.344 245.534 66.66 245.534 65.652V54.744C245.534 54.096 245.474 53.52 245.354 53.016C245.234 52.488 244.994 52.08 244.634 51.792C244.274 51.48 243.758 51.324 243.086 51.324C241.91 51.324 240.938 51.804 240.17 52.764C239.402 53.7 239.018 54.876 239.018 56.292V65.652C239.018 66.66 239.174 67.344 239.486 67.704C239.798 68.064 240.338 68.244 241.106 68.244V69C240.698 68.976 240.086 68.952 239.27 68.928C238.454 68.88 237.626 68.856 236.786 68.856C235.898 68.856 234.998 68.88 234.086 68.928C233.174 68.952 232.49 68.976 232.034 69V68.244C232.922 68.244 233.546 68.064 233.906 67.704C234.29 67.344 234.482 66.66 234.482 65.652V54.312C234.482 53.232 234.302 52.44 233.942 51.936C233.606 51.408 232.97 51.144 232.034 51.144V50.388C232.802 50.46 233.546 50.496 234.266 50.496C235.154 50.496 235.994 50.46 236.786 50.388C237.602 50.292 238.346 50.16 239.018 49.992V53.592C239.618 52.224 240.446 51.264 241.502 50.712C242.558 50.16 243.71 49.884 244.958 49.884ZM260.495 75.768C259.079 75.768 257.795 75.636 256.643 75.372C255.491 75.108 254.579 74.712 253.907 74.184C253.235 73.68 252.899 73.032 252.899 72.24C252.899 71.472 253.235 70.788 253.907 70.188C254.579 69.588 255.563 69.132 256.859 68.82L257.111 69.396C256.655 69.66 256.307 70.02 256.067 70.476C255.827 70.932 255.707 71.412 255.707 71.916C255.707 72.948 256.175 73.74 257.111 74.292C258.071 74.868 259.343 75.156 260.927 75.156C262.007 75.156 263.003 75.012 263.915 74.724C264.827 74.436 265.559 73.992 266.111 73.392C266.663 72.792 266.939 72.048 266.939 71.16C266.939 70.416 266.663 69.792 266.111 69.288C265.583 68.784 264.515 68.532 262.907 68.532H260.531C259.643 68.532 258.827 68.436 258.083 68.244C257.363 68.052 256.787 67.74 256.355 67.308C255.923 66.876 255.707 66.276 255.707 65.508C255.707 64.572 256.091 63.732 256.859 62.988C257.627 62.22 258.827 61.476 260.459 60.756L260.855 61.08C260.255 61.392 259.715 61.728 259.235 62.088C258.779 62.448 258.551 62.904 258.551 63.456C258.551 64.224 259.079 64.608 260.135 64.608H264.203C266.027 64.608 267.563 64.968 268.811 65.688C270.083 66.384 270.719 67.56 270.719 69.216C270.719 70.368 270.347 71.436 269.603 72.42C268.859 73.428 267.731 74.232 266.219 74.832C264.731 75.456 262.823 75.768 260.495 75.768ZM260.819 61.332C258.851 61.332 257.207 60.876 255.887 59.964C254.591 59.028 253.943 57.576 253.943 55.608C253.943 53.616 254.591 52.164 255.887 51.252C257.207 50.34 258.851 49.884 260.819 49.884C262.763 49.884 264.395 50.34 265.715 51.252C267.035 52.164 267.695 53.616 267.695 55.608C267.695 57.576 267.035 59.028 265.715 59.964C264.395 60.876 262.763 61.332 260.819 61.332ZM260.819 60.684C261.539 60.684 262.103 60.324 262.511 59.604C262.943 58.86 263.159 57.528 263.159 55.608C263.159 53.688 262.943 52.368 262.511 51.648C262.103 50.904 261.539 50.532 260.819 50.532C260.099 50.532 259.523 50.904 259.091 51.648C258.683 52.368 258.479 53.688 258.479 55.608C258.479 57.528 258.683 58.86 259.091 59.604C259.523 60.324 260.099 60.684 260.819 60.684ZM266.255 52.944L265.571 52.692C265.931 51.804 266.519 51.06 267.335 50.46C268.151 49.836 269.015 49.524 269.927 49.524C270.623 49.524 271.163 49.716 271.547 50.1C271.955 50.484 272.159 51.024 272.159 51.72C272.159 52.44 271.967 52.968 271.583 53.304C271.199 53.64 270.779 53.808 270.323 53.808C269.915 53.808 269.543 53.676 269.207 53.412C268.871 53.124 268.679 52.692 268.631 52.116C268.583 51.516 268.775 50.772 269.207 49.884L269.567 50.028C268.631 50.388 267.935 50.784 267.479 51.216C267.023 51.648 266.615 52.224 266.255 52.944Z" fill="white"/>
</svg>
